<?xml version="1.0" standalone="no"?>
<!DOCTYPE svg PUBLIC "-//W3C//DTD SVG 20010904//EN"
 "http://www.w3.org/TR/2001/REC-SVG-20010904/DTD/svg10.dtd">
<svg version="1.0" xmlns="http://www.w3.org/2000/svg"
 width="500.000000pt" height="251.000000pt" viewBox="0 0 500.000000 251.000000"
 preserveAspectRatio="xMidYMid meet">

<g transform="translate(0.000000,251.000000) scale(0.100000,-0.100000)"
fill="#000000" stroke="none">
<path d="M2521 2091 c-7 -5 -21 -7 -30 -4 -22 5 -204 -33 -234 -49 -12 -7 -25
-11 -29 -10 -17 4 -117 -40 -115 -51 1 -7 -8 -11 -21 -10 -26 3 -103 -33 -115
-54 -5 -7 -12 -11 -17 -8 -11 7 -60 -15 -60 -27 0 -4 6 -8 13 -8 8 0 7 -3 -3
-9 -8 -6 -18 -7 -23 -4 -16 9 -57 -7 -92 -38 -19 -17 -38 -28 -42 -26 -13 8
-46 -20 -38 -32 3 -6 1 -11 -4 -11 -6 0 -11 -9 -11 -20 0 -11 5 -20 10 -20 6
0 5 -8 -2 -19 -9 -15 -9 -23 1 -35 9 -11 10 -16 2 -16 -6 0 -11 -9 -11 -20 0
-11 5 -20 12 -20 7 0 5 -7 -5 -18 -15 -17 -15 -19 0 -35 11 -11 13 -17 5 -17
-7 0 -12 -10 -12 -21 0 -18 5 -21 33 -16 17 2 39 1 48 -3 8 -5 21 -5 29 0 8 5
22 4 32 -1 12 -6 25 -6 37 0 14 8 22 7 31 -4 13 -16 45 -21 36 -6 -3 5 1 12 9
15 9 3 18 -1 21 -9 8 -20 40 -19 48 1 3 8 10 13 15 9 6 -3 8 -12 5 -19 -4 -10
44 -16 218 -30 123 -9 261 -19 308 -22 47 -2 186 -11 310 -18 303 -19 826 -38
928 -34 45 2 82 1 82 -2 0 -11 45 -9 53 3 7 9 10 9 14 0 6 -17 50 -17 57 0 5
10 7 10 12 0 3 -7 16 -13 29 -13 13 0 26 6 29 13 5 10 7 10 12 0 3 -7 16 -13
29 -13 13 0 26 6 29 13 5 10 7 10 12 0 7 -15 44 -17 44 -3 0 6 7 10 16 10 8 0
12 -4 9 -10 -3 -6 5 -10 18 -10 14 0 28 7 31 16 3 8 10 12 16 9 6 -4 8 -11 5
-16 -4 -5 5 -9 19 -9 16 0 25 5 24 12 -2 7 4 13 12 13 8 0 14 -6 12 -13 -1 -7
8 -12 23 -12 15 0 24 5 23 12 -2 7 4 13 12 13 8 0 14 -6 12 -13 -1 -7 8 -12
23 -12 15 0 24 5 23 12 -2 7 4 13 12 13 8 0 14 -6 12 -12 -1 -7 7 -13 19 -13
11 0 18 4 15 9 -3 5 0 11 7 13 17 7 38 -2 31 -13 -3 -5 4 -9 16 -9 12 0 19 4
16 9 -4 5 0 11 6 14 10 3 10 9 0 27 -12 19 -12 24 0 31 10 7 10 12 1 27 -9 15
-9 22 0 31 8 8 8 14 0 22 -9 9 -9 16 0 31 10 15 9 20 -2 28 -12 7 -12 11 -2
24 10 12 11 19 2 30 -8 10 -9 16 -1 21 31 19 -7 53 -40 35 -13 -7 -21 -6 -30
5 -9 11 -9 15 -1 15 15 0 14 37 -1 43 -7 2 -21 0 -30 -5 -11 -5 -25 -4 -37 4
-15 9 -23 9 -36 -2 -15 -12 -19 -12 -30 3 -15 21 -25 21 -40 0 -12 -16 -40
-10 -30 7 7 11 -10 15 -105 30 -41 7 -84 16 -95 21 -61 26 -177 58 -192 53
-13 -4 -14 -3 -5 4 20 14 -272 127 -432 167 -200 51 -354 65 -691 65 -159 0
-296 -4 -304 -9z m-201 -55 c0 -11 -19 -15 -25 -6 -3 5 1 10 9 10 9 0 16 -2
16 -4z m156 -16 c13 0 24 5 24 11 0 8 4 8 14 0 8 -7 25 -10 38 -7 12 3 69 8
125 10 l102 5 3 -169 3 -168 -100 -6 c-55 -3 -176 -8 -270 -11 -361 -11 -445
-17 -443 -31 2 -7 0 -13 -4 -13 -27 -3 -30 0 -18 14 11 13 8 15 -19 15 -17 0
-31 -4 -31 -10 0 -5 6 -10 13 -10 8 0 8 -3 -2 -9 -8 -5 -21 -6 -30 -3 -10 4
-11 7 -3 10 22 7 12 22 -14 22 -19 0 -25 -4 -21 -15 8 -20 -9 -28 -30 -16 -10
6 -12 11 -5 11 6 0 12 4 12 9 0 5 -8 7 -19 4 -42 -11 -28 18 31 64 101 77 121
92 156 109 17 9 32 23 32 31 0 8 6 13 13 10 21 -7 67 21 61 38 -4 8 -2 15 4
15 6 0 12 -5 14 -11 4 -12 112 35 114 51 3 23 5 24 13 12 7 -11 21 -10 76 7
37 12 78 21 91 21 14 0 27 7 31 17 4 11 8 12 11 5 2 -7 15 -12 28 -12z m629
10 c66 -6 158 -17 205 -26 232 -42 376 -138 339 -225 -6 -16 -20 -34 -30 -40
-10 -5 -125 -14 -256 -19 -131 -5 -302 -12 -380 -16 l-143 -6 0 171 0 171 73
0 c39 0 126 -5 192 -10z m-931 -61 c-3 -5 -10 -7 -15 -3 -5 3 -7 10 -3 15 3 5
10 7 15 3 5 -3 7 -10 3 -15z m-124 -50 c0 -5 -7 -9 -15 -9 -15 0 -20 12 -9 23
8 8 24 -1 24 -14z m-80 -63 c-15 -15 -33 4 -19 20 10 12 14 12 20 2 5 -7 4
-17 -1 -22z m-131 -53 c-8 -9 -16 -10 -22 -4 -13 13 0 31 19 24 11 -4 12 -8 3
-20z m66 -3 c-5 -8 -11 -8 -17 -2 -6 6 -7 16 -3 22 5 8 11 8 17 2 6 -6 7 -16
3 -22z m2055 10 c0 -5 -2 -10 -4 -10 -3 0 -8 5 -11 10 -3 6 -1 10 4 10 6 0 11
-4 11 -10z m70 0 c0 -5 -4 -10 -10 -10 -5 0 -10 5 -10 10 0 6 5 10 10 10 6 0
10 -4 10 -10z m70 0 c0 -5 -4 -10 -10 -10 -5 0 -10 5 -10 10 0 6 5 10 10 10 6
0 10 -4 10 -10z m-2327 -45 c7 -18 -6 -27 -27 -19 -13 5 -14 9 -5 20 15 18 25
18 32 -1z m66 -16 c-7 -4 -18 -5 -26 -2 -10 4 -11 9 -2 19 9 11 15 12 26 3 11
-9 11 -14 2 -20z m2191 11 c0 -5 -4 -10 -10 -10 -5 0 -10 5 -10 10 0 6 5 10
10 10 6 0 10 -4 10 -10z m65 0 c3 -5 1 -10 -4 -10 -6 0 -11 5 -11 10 0 6 2 10
4 10 3 0 8 -4 11 -10z m75 0 c0 -5 -7 -10 -16 -10 -8 0 -12 5 -9 10 3 6 10 10
16 10 5 0 9 -4 9 -10z m64 -11 c-3 -5 -10 -7 -15 -3 -5 3 -7 10 -3 15 3 5 10
7 15 3 5 -3 7 -10 3 -15z m66 5 c0 -8 -4 -12 -10 -9 -5 3 -10 10 -10 16 0 5 5
9 10 9 6 0 10 -7 10 -16z m-2522 -43 c10 -6 10 -10 -3 -21 -12 -10 -18 -10
-30 0 -13 11 -13 15 -3 21 7 5 15 9 18 9 3 0 11 -4 18 -9z m2462 -12 c0 -5 -7
-9 -15 -9 -15 0 -20 12 -9 23 8 8 24 -1 24 -14z m67 -5 c-3 -4 -14 -3 -24 0
-15 6 -15 8 -3 16 16 10 39 -4 27 -16z m71 17 c11 -6 11 -10 0 -19 -16 -13
-44 1 -34 17 8 13 16 14 34 2z m68 -2 c3 -6 2 -15 -2 -19 -12 -12 -38 5 -30
19 9 14 23 14 32 0z m73 2 c11 -7 10 -11 -7 -20 -22 -12 -39 0 -27 19 8 12 16
12 34 1z m-629 -11 c0 -5 -2 -10 -4 -10 -3 0 -8 5 -11 10 -3 6 -1 10 4 10 6 0
11 -4 11 -10z m70 0 c0 -5 -2 -10 -4 -10 -3 0 -8 5 -11 10 -3 6 -1 10 4 10 6
0 11 -4 11 -10z m140 0 c0 -5 -4 -10 -10 -10 -5 0 -10 5 -10 10 0 6 5 10 10
10 6 0 10 -4 10 -10z m70 0 c0 -5 -4 -10 -9 -10 -6 0 -13 5 -16 10 -3 6 1 10
9 10 9 0 16 -4 16 -10z m-2398 -62 c-5 -5 -16 -6 -25 -2 -13 4 -14 9 -4 19 9
9 16 10 25 2 7 -6 9 -14 4 -19z m2807 -4 c-8 -10 -14 -11 -24 -1 -19 17 2 42
21 26 11 -9 11 -15 3 -25z m-2538 13 c-1 -12 -15 -9 -19 4 -3 6 1 10 8 8 6 -3
11 -8 11 -12z m70 0 c-1 -12 -15 -9 -19 4 -3 6 1 10 8 8 6 -3 11 -8 11 -12z
m64 3 c3 -5 1 -10 -4 -10 -6 0 -11 5 -11 10 0 6 2 10 4 10 3 0 8 -4 11 -10z
m70 0 c3 -5 -1 -10 -10 -10 -9 0 -13 5 -10 10 3 6 8 10 10 10 2 0 7 -4 10 -10z
m69 -11 c-3 -5 -10 -7 -15 -3 -5 3 -7 10 -3 15 3 5 10 7 15 3 5 -3 7 -10 3
-15z m1786 11 c0 -5 -5 -10 -11 -10 -5 0 -7 5 -4 10 3 6 8 10 11 10 2 0 4 -4
4 -10z m65 0 c3 -5 -1 -10 -10 -10 -9 0 -13 5 -10 10 3 6 8 10 10 10 2 0 7 -4
10 -10z m69 -11 c-3 -5 -10 -7 -15 -3 -5 3 -7 10 -3 15 3 5 10 7 15 3 5 -3 7
-10 3 -15z m67 8 c-1 -12 -15 -9 -19 4 -3 6 1 10 8 8 6 -3 11 -8 11 -12z m74
4 c7 -12 -12 -24 -25 -16 -11 7 -4 25 10 25 5 0 11 -4 15 -9z m70 0 c7 -12
-12 -24 -25 -16 -11 7 -4 25 10 25 5 0 11 -4 15 -9z m70 0 c7 -12 -12 -24 -25
-16 -11 7 -4 25 10 25 5 0 11 -4 15 -9z m-2739 -52 c10 -17 -13 -36 -27 -22
-12 12 -4 33 11 33 5 0 12 -5 16 -11z m63 -15 c-9 -11 -15 -12 -26 -3 -17 14
1 31 24 22 10 -4 11 -9 2 -19z m66 -4 c-5 -8 -11 -8 -21 1 -12 10 -12 14 -2
20 16 10 33 -5 23 -21z m70 0 c-5 -8 -11 -8 -21 1 -12 10 -12 14 -2 20 16 10
33 -5 23 -21z m66 7 c-13 -13 -26 -3 -16 12 3 6 11 8 17 5 6 -4 6 -10 -1 -17z
m2193 2 c-3 -5 -10 -7 -15 -3 -5 3 -7 10 -3 15 3 5 10 7 15 3 5 -3 7 -10 3
-15z m67 -2 c-13 -13 -26 -3 -16 12 3 6 11 8 17 5 6 -4 6 -10 -1 -17z m72 17
c3 -3 3 -12 0 -20 -4 -11 -9 -12 -19 -3 -8 6 -11 15 -8 20 6 10 18 12 27 3z
m72 -3 c7 -12 -12 -24 -25 -16 -11 7 -4 25 10 25 5 0 11 -4 15 -9z m69 0 c3
-5 -1 -14 -8 -20 -16 -13 -32 2 -21 19 8 12 22 13 29 1z m70 0 c3 -5 0 -14 -8
-20 -10 -8 -16 -8 -25 3 -9 11 -9 15 1 19 20 8 26 8 32 -2z m-2469 -11 c-3 -5
-10 -10 -16 -10 -5 0 -9 5 -9 10 0 6 7 10 16 10 8 0 12 -4 9 -10z m65 0 c0 -5
-4 -10 -10 -10 -5 0 -10 5 -10 10 0 6 5 10 10 10 6 0 10 -4 10 -10z m70 6 c0
-3 -4 -8 -10 -11 -5 -3 -10 -1 -10 4 0 6 5 11 10 11 6 0 10 -2 10 -4z m70 0
c0 -11 -19 -15 -25 -6 -3 5 1 10 9 10 9 0 16 -2 16 -4z m1640 -6 c0 -5 -2 -10
-4 -10 -3 0 -8 5 -11 10 -3 6 -1 10 4 10 6 0 11 -4 11 -10z m70 0 c0 -5 -4
-10 -10 -10 -5 0 -10 5 -10 10 0 6 5 10 10 10 6 0 10 -4 10 -10z m70 0 c0 -5
-4 -10 -10 -10 -5 0 -10 5 -10 10 0 6 5 10 10 10 6 0 10 -4 10 -10z m70 0 c0
-5 -4 -10 -10 -10 -5 0 -10 5 -10 10 0 6 5 10 10 10 6 0 10 -4 10 -10z m-2398
-62 c-5 -5 -16 -6 -26 -2 -13 5 -14 9 -5 20 9 11 15 12 26 3 8 -7 10 -16 5
-21z m67 1 c-7 -4 -18 -5 -26 -2 -10 4 -11 9 -2 19 9 11 15 12 26 3 11 -9 11
-14 2 -20z m67 2 c-4 -5 -13 -8 -22 -4 -11 4 -12 8 -3 20 14 16 36 2 25 -16z
m70 0 c-4 -5 -13 -8 -22 -4 -11 4 -12 8 -3 20 14 16 36 2 25 -16z m2394 -5
c-15 -15 -33 4 -19 20 10 12 14 12 20 2 5 -7 4 -17 -1 -22z m141 1 c-13 -13
-31 0 -24 19 4 11 8 12 20 3 9 -8 10 -16 4 -22z m71 1 c-5 -5 -16 -6 -26 -2
-13 5 -14 9 -5 20 9 11 15 12 26 3 8 -7 10 -16 5 -21z m-2541 9 c-1 -12 -15
-9 -19 4 -3 6 1 10 8 8 6 -3 11 -8 11 -12z m69 3 c0 -5 -4 -10 -10 -10 -5 0
-10 5 -10 10 0 6 5 10 10 10 6 0 10 -4 10 -10z m70 0 c0 -5 -7 -10 -16 -10 -8
0 -12 5 -9 10 3 6 10 10 16 10 5 0 9 -4 9 -10z m65 0 c3 -5 -1 -10 -10 -10 -9
0 -13 5 -10 10 3 6 8 10 10 10 2 0 7 -4 10 -10z m70 0 c3 -5 -1 -10 -10 -10
-9 0 -13 5 -10 10 3 6 8 10 10 10 2 0 7 -4 10 -10z m65 0 c0 -5 -5 -10 -11
-10 -5 0 -7 5 -4 10 3 6 8 10 11 10 2 0 4 -4 4 -10z m70 0 c0 -5 -5 -10 -11
-10 -5 0 -7 5 -4 10 3 6 8 10 11 10 2 0 4 -4 4 -10z m1580 0 c0 -5 -4 -10 -10
-10 -5 0 -10 5 -10 10 0 6 5 10 10 10 6 0 10 -4 10 -10z m65 0 c3 -5 1 -10 -4
-10 -6 0 -11 5 -11 10 0 6 2 10 4 10 3 0 8 -4 11 -10z m75 0 c0 -5 -7 -10 -16
-10 -8 0 -12 5 -9 10 3 6 10 10 16 10 5 0 9 -4 9 -10z m64 -11 c-3 -5 -10 -7
-15 -3 -5 3 -7 10 -3 15 3 5 10 7 15 3 5 -3 7 -10 3 -15z m67 8 c-1 -12 -15
-9 -19 4 -3 6 1 10 8 8 6 -3 11 -8 11 -12z m144 4 c7 -12 -12 -24 -25 -16 -11
7 -4 25 10 25 5 0 11 -4 15 -9z m-211 -62 c-3 -5 -10 -7 -15 -3 -5 3 -7 10 -3
15 3 5 10 7 15 3 5 -3 7 -10 3 -15z m67 -2 c-13 -13 -26 -3 -16 12 3 6 11 8
17 5 6 -4 6 -10 -1 -17z m72 17 c3 -3 3 -12 0 -20 -4 -11 -9 -12 -19 -3 -8 6
-11 15 -8 20 6 10 18 12 27 3z m72 -3 c7 -12 -12 -24 -25 -16 -11 7 -4 25 10
25 5 0 11 -4 15 -9z m69 0 c3 -5 0 -14 -8 -20 -10 -9 -15 -8 -19 3 -9 22 15
37 27 17z m70 0 c3 -5 0 -14 -8 -20 -10 -8 -16 -8 -25 3 -9 11 -9 15 1 19 20
8 26 8 32 -2z m-2474 -11 c0 -5 -4 -10 -10 -10 -5 0 -10 5 -10 10 0 6 5 10 10
10 6 0 10 -4 10 -10z m70 0 c0 -5 -4 -10 -9 -10 -6 0 -13 5 -16 10 -3 6 1 10
9 10 9 0 16 -4 16 -10z m70 6 c0 -11 -19 -15 -25 -6 -3 5 1 10 9 10 9 0 16 -2
16 -4z m70 0 c0 -11 -19 -15 -25 -6 -3 5 1 10 9 10 9 0 16 -2 16 -4z m1710 -6
c0 -5 -4 -10 -10 -10 -5 0 -10 5 -10 10 0 6 5 10 10 10 6 0 10 -4 10 -10z m70
0 c0 -5 -4 -10 -10 -10 -5 0 -10 5 -10 10 0 6 5 10 10 10 6 0 10 -4 10 -10z
m70 6 c0 -11 -19 -15 -25 -6 -3 5 1 10 9 10 9 0 16 -2 16 -4z m206 -68 c-23
-13 -40 0 -25 18 9 11 15 12 26 2 12 -10 12 -13 -1 -20z m140 0 c-22 -12 -49
1 -35 18 8 10 15 11 30 1 15 -9 16 -13 5 -19z m63 -4 c-8 -10 -14 -11 -24 -1
-19 17 2 42 21 26 11 -9 11 -15 3 -25z m-689 16 c0 -5 -5 -10 -11 -10 -5 0 -7
5 -4 10 3 6 8 10 11 10 2 0 4 -4 4 -10z m70 0 c0 -5 -5 -10 -11 -10 -5 0 -7 5
-4 10 3 6 8 10 11 10 2 0 4 -4 4 -10z m70 0 c0 -5 -4 -10 -10 -10 -5 0 -10 5
-10 10 0 6 5 10 10 10 6 0 10 -4 10 -10z m70 0 c0 -5 -4 -10 -10 -10 -5 0 -10
5 -10 10 0 6 5 10 10 10 6 0 10 -4 10 -10z m70 0 c0 -5 -7 -10 -16 -10 -8 0
-12 5 -9 10 3 6 10 10 16 10 5 0 9 -4 9 -10z m70 2 c0 -13 -12 -22 -22 -16
-10 6 -1 24 13 24 5 0 9 -4 9 -8z m63 2 c11 -11 -3 -24 -18 -18 -8 4 -12 10
-9 15 6 11 18 12 27 3z m145 -3 c11 -7 10 -10 -3 -15 -20 -7 -38 1 -30 15 7
11 16 11 33 0z"/>
<path d="M1648 1736 c-25 -18 -22 -26 7 -26 18 0 25 5 25 20 0 23 -8 25 -32 6z"/>
<path d="M4575 1740 c-4 -7 -3 -16 3 -22 14 -14 47 -6 47 12 0 18 -40 26 -50
10z"/>
<path d="M4640 1732 c0 -12 19 -26 26 -19 2 2 -2 10 -11 17 -9 8 -15 8 -15 2z"/>
<path d="M1571 1690 c-8 -4 -11 -15 -8 -24 8 -20 43 -21 51 -1 7 18 -25 37
-43 25z"/>
<path d="M1641 1691 c-19 -12 -6 -43 16 -39 10 2 18 12 18 22 0 22 -14 29 -34
17z"/>
<path d="M1495 1680 c-4 -7 -3 -16 3 -22 14 -14 47 -6 47 12 0 18 -40 26 -50
10z"/>
<path d="M4642 1673 c5 -25 28 -28 28 -4 0 12 -6 21 -16 21 -9 0 -14 -7 -12
-17z"/>
<path d="M1433 1668 c2 -7 12 -13 22 -13 10 0 20 6 23 13 2 7 -6 12 -23 12
-17 0 -25 -5 -22 -12z"/>
<path d="M1310 1660 c-13 -8 -12 -10 3 -10 9 0 17 5 17 10 0 12 -1 12 -20 0z"/>
<path d="M1365 1660 c3 -5 12 -10 20 -10 8 0 17 5 20 10 4 6 -5 10 -20 10 -15
0 -24 -4 -20 -10z"/>
<path d="M1094 1629 c-10 -17 13 -36 27 -22 12 12 4 33 -11 33 -5 0 -12 -5
-16 -11z"/>
<path d="M1167 1634 c-14 -14 -7 -35 11 -32 9 2 17 10 17 17 0 16 -18 25 -28
15z"/>
<path d="M1225 1630 c-4 -7 -3 -16 3 -22 14 -14 45 -2 40 15 -6 16 -34 21 -43
7z"/>
<path d="M1297 1634 c-16 -16 -6 -35 16 -32 12 2 22 10 22 18 0 16 -26 25 -38
14z"/>
<path d="M1367 1634 c-16 -16 -6 -35 16 -32 12 2 22 10 22 18 0 16 -26 25 -38
14z"/>
<path d="M1437 1634 c-16 -16 -6 -35 16 -32 12 2 22 10 22 18 0 16 -26 25 -38
14z"/>
<path d="M1495 1630 c-4 -7 -3 -16 3 -22 14 -14 47 -6 47 12 0 18 -40 26 -50
10z"/>
<path d="M1567 1633 c-15 -14 -6 -33 16 -33 29 0 37 7 30 26 -5 14 -35 19 -46
7z"/>
<path d="M1630 1620 c0 -15 7 -20 25 -20 18 0 25 5 25 20 0 15 -7 20 -25 20
-18 0 -25 -5 -25 -20z"/>
<path d="M4645 1630 c-8 -13 3 -30 20 -30 8 0 11 7 8 20 -6 22 -18 26 -28 10z"/>
<path d="M966 1620 c-15 -5 -16 -9 -7 -14 7 -5 18 -3 24 3 14 14 6 20 -17 11z"/>
<path d="M1022 1618 c7 -19 38 -22 38 -4 0 10 -9 16 -21 16 -12 0 -19 -5 -17
-12z"/>
<path d="M895 1610 c-3 -5 -2 -10 4 -10 5 0 13 5 16 10 3 6 2 10 -4 10 -5 0
-13 -4 -16 -10z"/>
<path d="M1231 1577 c-7 -7 -7 -14 0 -23 12 -15 39 -7 39 11 0 18 -25 26 -39
12z"/>
<path d="M1501 1576 c-17 -20 13 -43 34 -26 12 10 13 16 4 26 -6 8 -15 14 -19
14 -4 0 -13 -6 -19 -14z"/>
<path d="M1573 1583 c-18 -7 -16 -32 2 -39 23 -9 48 15 34 32 -12 15 -16 16
-36 7z"/>
<path d="M1634 1575 c-4 -9 -2 -21 4 -27 15 -15 44 -1 40 19 -4 23 -36 29 -44
8z"/>
<path d="M4644 1575 c-7 -18 3 -35 22 -35 8 0 14 10 14 25 0 27 -27 35 -36 10z"/>
<path d="M755 1571 c-7 -12 12 -24 25 -16 11 7 4 25 -10 25 -5 0 -11 -4 -15
-9z"/>
<path d="M820 1565 c0 -10 7 -15 18 -13 21 4 19 22 -2 26 -10 2 -16 -3 -16
-13z"/>
<path d="M890 1565 c0 -8 7 -15 15 -15 8 0 15 7 15 15 0 8 -7 15 -15 15 -8 0
-15 -7 -15 -15z"/>
<path d="M957 1574 c-9 -10 2 -24 19 -24 8 0 14 7 14 15 0 15 -21 21 -33 9z"/>
<path d="M1025 1570 c-8 -12 20 -24 35 -15 6 3 8 11 5 16 -8 12 -32 12 -40 -1z"/>
<path d="M1097 1573 c-13 -12 -7 -23 13 -23 11 0 20 7 20 15 0 15 -21 21 -33
8z"/>
<path d="M1160 1565 c0 -8 9 -15 20 -15 11 0 20 7 20 15 0 8 -9 15 -20 15 -11
0 -20 -7 -20 -15z"/>
<path d="M1290 1566 c0 -16 19 -25 38 -19 22 8 13 33 -13 33 -15 0 -25 -6 -25
-14z"/>
<path d="M1360 1566 c0 -16 19 -25 38 -19 22 8 13 33 -13 33 -15 0 -25 -6 -25
-14z"/>
<path d="M1430 1566 c0 -19 14 -28 34 -20 25 10 19 34 -9 34 -15 0 -25 -6 -25
-14z"/>
<path d="M688 1558 c9 -9 15 -9 24 0 9 9 7 12 -12 12 -19 0 -21 -3 -12 -12z"/>
<path d="M830 1519 c0 -5 5 -7 10 -4 6 3 10 8 10 11 0 2 -4 4 -10 4 -5 0 -10
-5 -10 -11z"/>
<path d="M1308 1523 c7 -3 16 -2 19 1 4 3 -2 6 -13 5 -11 0 -14 -3 -6 -6z"/>
<path d="M1370 1526 c0 -2 9 -6 20 -9 11 -3 18 -1 14 4 -5 9 -34 13 -34 5z"/>
<path d="M1430 1520 c0 -5 12 -10 26 -10 14 0 23 4 19 10 -3 6 -15 10 -26 10
-10 0 -19 -4 -19 -10z"/>
<path d="M1495 1520 c-4 -6 7 -10 25 -10 18 0 29 4 25 10 -3 6 -15 10 -25 10
-10 0 -22 -4 -25 -10z"/>
<path d="M1567 1524 c-4 -4 -7 -11 -7 -16 0 -13 50 -6 53 7 2 12 -36 19 -46 9z"/>
<path d="M1630 1515 c0 -9 9 -15 25 -15 16 0 25 6 25 15 0 9 -9 15 -25 15 -16
0 -25 -6 -25 -15z"/>
<path d="M4645 1520 c-9 -15 4 -30 26 -30 12 0 19 7 19 20 0 21 -33 29 -45 10z"/>
<path d="M550 1510 c0 -5 7 -10 15 -10 8 0 15 5 15 10 0 6 -7 10 -15 10 -8 0
-15 -4 -15 -10z"/>
<path d="M620 1510 c0 -5 7 -10 15 -10 8 0 15 5 15 10 0 6 -7 10 -15 10 -8 0
-15 -4 -15 -10z"/>
<path d="M680 1510 c0 -5 7 -10 15 -10 8 0 15 5 15 10 0 6 -7 10 -15 10 -8 0
-15 -4 -15 -10z"/>
<path d="M750 1510 c0 -13 11 -13 30 0 12 8 11 10 -7 10 -13 0 -23 -4 -23 -10z"/>
<path d="M4647 1473 c-12 -12 -7 -31 9 -37 21 -8 45 11 37 30 -5 14 -34 19
-46 7z"/>
<path d="M420 1460 c0 -5 5 -10 11 -10 5 0 7 5 4 10 -3 6 -8 10 -11 10 -2 0
-4 -4 -4 -10z"/>
<path d="M486 1461 c-4 -5 -2 -12 3 -15 5 -4 12 -2 15 3 4 5 2 12 -3 15 -5 4
-12 2 -15 -3z"/>
<path d="M552 1461 c4 -13 18 -16 19 -4 0 4 -5 9 -11 12 -7 2 -11 -2 -8 -8z"/>
<path d="M4645 1410 c-4 -7 -3 -16 3 -22 14 -14 47 -6 47 12 0 18 -40 26 -50
10z"/>
<path d="M350 1400 c0 -5 5 -10 10 -10 6 0 10 5 10 10 0 6 -4 10 -10 10 -5 0
-10 -4 -10 -10z"/>
<path d="M420 1400 c0 -5 5 -10 10 -10 6 0 10 5 10 10 0 6 -4 10 -10 10 -5 0
-10 -4 -10 -10z"/>
<path d="M480 1399 c0 -5 5 -7 10 -4 6 3 10 8 10 11 0 2 -4 4 -10 4 -5 0 -10
-5 -10 -11z"/>
<path d="M4658 1363 c7 -3 16 -2 19 1 4 3 -2 6 -13 5 -11 0 -14 -3 -6 -6z"/>
<path d="M345 1350 c-3 -5 1 -10 10 -10 9 0 13 5 10 10 -3 6 -8 10 -10 10 -2
0 -7 -4 -10 -10z"/>
<path d="M415 1350 c-3 -5 -1 -10 4 -10 6 0 11 5 11 10 0 6 -2 10 -4 10 -3 0
-8 -4 -11 -10z"/>
<path d="M444 1061 c-41 -18 -64 -60 -64 -117 0 -45 5 -59 29 -86 27 -31 34
-33 91 -33 57 0 64 2 91 33 37 41 36 49 -3 60 -29 8 -35 6 -46 -15 -13 -24
-45 -30 -71 -14 -18 11 -19 84 -2 105 17 20 49 21 70 2 11 -10 26 -12 50 -7
l35 7 -30 33 c-25 28 -39 34 -80 37 -27 2 -59 0 -70 -5z"/>
<path d="M700 1008 c-12 -35 -33 -91 -46 -125 l-23 -63 39 0 c30 0 40 5 45 20
5 16 15 20 50 20 35 0 45 -4 50 -20 5 -15 15 -20 45 -20 45 0 46 -11 -13 150
l-34 95 -45 3 -45 3 -23 -63z m90 -75 c0 -7 -11 -13 -24 -13 -23 0 -24 1 -13
42 l11 43 12 -30 c7 -17 13 -36 14 -42z"/>
<path d="M930 946 l0 -126 35 0 35 0 0 50 c0 66 21 66 58 0 26 -48 29 -50 70
-50 l42 0 -25 49 c-13 27 -30 52 -37 55 -10 5 -11 7 0 12 42 19 55 72 28 110
-12 16 -29 20 -110 22 l-96 4 0 -126z m140 49 c0 -10 -11 -15 -35 -15 -24 0
-35 5 -35 15 0 10 11 15 35 15 24 0 35 -5 35 -15z"/>
<path d="M1228 1054 c-32 -17 -45 -53 -29 -82 9 -17 55 -39 119 -58 24 -7 8
-39 -21 -42 -22 -3 -30 1 -34 18 -5 17 -12 21 -42 18 -30 -2 -35 -7 -33 -23 7
-43 38 -60 107 -60 71 0 98 16 110 66 9 36 -20 67 -83 88 -58 18 -71 34 -33
39 15 2 28 -3 33 -12 10 -17 78 -23 78 -7 0 59 -104 92 -172 55z"/>
<path d="M1570 945 l0 -125 35 0 34 0 3 65 3 65 44 -65 c39 -57 48 -65 76 -65
40 0 42 7 37 148 l-4 102 -34 0 -34 0 0 -67 0 -67 -47 67 c-42 60 -50 67 -80
67 l-33 0 0 -125z"/>
<path d="M1860 945 l0 -125 100 0 100 0 0 30 0 30 -65 0 c-63 0 -65 1 -65 25
0 24 3 25 60 25 l60 0 0 30 0 30 -60 0 c-33 0 -60 4 -60 10 0 6 28 10 65 10
l65 0 0 30 0 30 -100 0 -100 0 0 -125z"/>
<path d="M2153 1051 c-17 -11 -37 -29 -42 -40 -16 -30 -13 -113 5 -139 37 -53
117 -66 192 -32 41 19 42 20 42 70 l0 50 -60 0 -60 0 0 -30 c0 -26 4 -30 26
-30 14 0 23 -4 19 -10 -3 -5 -22 -10 -40 -10 -58 0 -83 69 -43 117 13 16 60
17 75 2 14 -14 73 -2 73 15 0 49 -128 74 -187 37z"/>
<path d="M2443 1051 c-42 -26 -53 -49 -53 -110 0 -42 5 -56 29 -83 28 -31 34
-33 95 -33 57 0 69 3 92 26 49 49 48 143 -1 189 -35 33 -118 39 -162 11z m111
-63 c31 -44 7 -108 -39 -108 -27 0 -55 33 -55 65 0 32 28 65 55 65 13 0 31
-10 39 -22z"/>
<path d="M2744 1061 c-41 -18 -64 -60 -64 -117 0 -45 5 -59 29 -86 27 -31 34
-33 91 -33 57 0 64 2 91 33 16 18 29 36 29 41 0 8 -61 35 -65 29 -1 -2 -8 -13
-14 -25 -12 -24 -45 -30 -71 -13 -19 12 -19 82 -1 104 17 20 49 21 70 2 18
-17 71 -10 71 8 0 7 -11 23 -25 36 -27 25 -104 37 -141 21z"/>
<path d="M2960 945 l0 -125 100 0 100 0 0 30 0 30 -65 0 c-63 0 -65 1 -65 25
0 24 3 25 60 25 l60 0 0 30 0 30 -60 0 c-33 0 -60 4 -60 10 0 6 28 10 65 10
l65 0 0 30 0 30 -100 0 -100 0 0 -125z"/>
<path d="M3238 1054 c-32 -17 -45 -53 -29 -82 9 -17 55 -39 119 -58 24 -7 8
-39 -20 -42 -20 -2 -28 2 -33 18 -5 17 -13 21 -43 18 -31 -2 -36 -6 -34 -23 7
-43 38 -60 108 -60 60 0 68 3 90 28 45 52 22 98 -64 126 -58 18 -71 34 -33 39
15 2 28 -3 33 -12 10 -17 78 -23 78 -7 0 59 -104 92 -172 55z"/>
<path d="M3620 1008 c-12 -35 -33 -91 -46 -125 l-23 -63 39 0 c30 0 40 5 45
20 5 16 15 20 50 20 35 0 45 -4 50 -20 5 -16 15 -20 46 -20 21 0 39 1 39 3 0
1 -20 56 -44 122 l-44 120 -45 3 -44 3 -23 -63z m90 -75 c0 -7 -11 -13 -24
-13 -23 0 -24 1 -13 42 l11 43 12 -30 c7 -17 13 -36 14 -42z"/>
<path d="M3850 976 c0 -85 2 -98 23 -122 18 -20 35 -28 73 -31 103 -10 132 22
136 152 l3 90 -37 3 -38 3 0 -83 c0 -89 -8 -108 -47 -108 -32 0 -43 28 -43
114 l0 76 -35 0 -35 0 0 -94z"/>
<path d="M4120 1040 c0 -28 2 -30 40 -30 l40 0 0 -95 0 -95 35 0 35 0 0 95 0
95 40 0 c38 0 40 2 40 30 l0 30 -115 0 -115 0 0 -30z"/>
<path d="M4433 1051 c-42 -26 -53 -49 -53 -110 0 -42 5 -56 29 -83 28 -31 34
-33 95 -33 57 0 69 3 92 26 49 49 48 143 -1 189 -35 33 -118 39 -162 11z m111
-63 c9 -12 16 -32 16 -43 0 -31 -28 -65 -54 -65 -28 0 -42 15 -51 53 -16 61
55 104 89 55z"/>
</g>
</svg>
